<svg width="330" height="50" viewBox="0 0 330 50" fill="none" xmlns="http://www.w3.org/2000/svg">
    <g clip-path="url(#clip0_1_4)">
        <path d="M37.7882 31.241C37.7882 20.9012 43.6468 12.5555 55.4618 12.5555C67.3744 12.5555 72.3543 20.6056 72.3543 31.0932V33.9736H48.4315C48.5291 39.2171 51.4585 43.2055 57.7079 43.2055C60.3441 43.2055 63.3711 41.8761 65.5193 39.6605L70.8896 44.3132C67.1792 47.9322 61.9066 50.0001 56.5359 50.0001C44.2327 50.0001 37.7882 42.1715 37.7882 31.241ZM55.169 19.3501C49.7987 19.3501 48.4315 24.3724 48.4315 28.1391H61.7111C61.7111 24.1506 60.5394 19.3501 55.169 19.3501Z" fill="black"/>
        <path d="M95.691 49.1139V45.7165C93.6405 48.523 89.2464 50.0001 85.8289 50.0001C78.408 50.0001 73.0375 45.4212 73.0375 38.1096C73.0375 30.8715 78.4078 26.5143 85.8289 26.5143C89.2465 26.5143 93.7379 27.8436 95.691 30.5024V26.1448C95.691 22.0829 93.5427 19.6455 88.563 19.6455C85.4383 19.6455 82.1183 20.7532 78.9938 23.1904L74.8927 17.2822C79.1891 13.811 85.9266 12.5555 90.8088 12.5555C100.476 12.5555 106.725 16.2482 106.725 24.2246V49.1139H95.691ZM95.691 40.6944V35.8937C94.5192 33.678 92.1758 32.201 89.7347 32.201C85.9265 32.201 84.0714 34.8597 84.0714 38.2569C84.0714 41.6544 85.9265 44.3869 89.7347 44.3869C92.1758 44.3869 94.5192 42.9836 95.691 40.6942V40.6944Z" fill="black"/>
        <path d="M111.802 50V14.3279H122.836V19.2763C124.691 16.0267 129.281 13.4416 133.382 13.4416V21.6395C132.698 21.4917 131.917 21.418 131.233 21.418C128.011 21.418 124.691 23.4119 122.836 25.9969V49.9999H111.802V50Z" fill="black"/>
        <path d="M204.713 31.241C204.713 20.9012 210.572 12.5555 222.387 12.5555C234.299 12.5555 239.279 20.6056 239.279 31.0932V33.9736H215.356C215.454 39.2171 218.383 43.2055 224.633 43.2055C227.269 43.2055 230.296 41.8761 232.444 39.6605L237.814 44.3132C234.104 47.9322 228.831 50.0001 223.461 50.0001C211.158 50.0001 204.713 42.1715 204.713 31.241ZM222.094 19.3501C216.723 19.3501 215.356 24.3724 215.356 28.1391H228.636C228.636 24.1506 227.464 19.3501 222.094 19.3501Z" fill="black"/>
        <path d="M242.11 50V14.3279H253.144V19.2763C254.999 16.0267 259.588 13.4416 263.689 13.4416V21.6395C263.006 21.4917 262.225 21.418 261.542 21.418C258.319 21.418 254.999 23.4119 253.144 25.9969V49.9999H242.11L242.11 50Z" fill="black"/>
        <path d="M265.545 50V0.738565H276.579V50H265.545Z" fill="black"/>
        <path d="M280.289 5.09614C280.289 2.28953 283.414 0 287.026 0C290.737 0 293.764 2.28953 293.764 5.09614C293.764 7.90275 290.737 10.1183 287.026 10.1183C283.414 10.1183 280.289 7.90275 280.289 5.09614ZM281.558 50.0001V14.3281H292.592V50.0001H281.558Z" fill="black"/>
        <path d="M318.565 50V24.5939C318.565 22.0829 317.394 20.8272 314.952 20.8272C312.121 20.8272 309.68 23.1903 308.606 25.4799V49.9999H297.572V14.3278H308.606V18.9805C310.461 16.1004 315.343 13.4414 319.639 13.4414C326.767 13.4414 329.697 16.6172 329.697 21.5655V49.9999H318.565L318.565 50Z" fill="black"/>
        <path d="M142.78 42.9101L141.723 41.6365C140.352 42.6732 138.707 43.2656 136.748 43.2656C133.38 43.2656 130.873 41.2809 130.873 37.7558C130.873 34.823 132.792 33.2234 134.829 31.9201C134.006 30.3501 133.419 28.8985 133.419 27.7432C133.419 24.8698 135.612 22.8555 138.667 22.8555C141.448 22.8555 143.681 24.6626 143.681 27.062C143.681 29.8465 141.449 31.2093 139.255 32.6016C139.725 33.3124 140.195 34.0235 140.626 34.5862L141.84 36.2749C142.349 35.1196 142.741 33.8754 143.054 32.8976L146.579 34.1123C145.953 35.949 145.169 37.6669 144.151 39.1186C145.091 40.2739 146.149 41.4588 147.441 42.9104H142.78V42.9101ZM139.96 39.4442C139.216 38.4962 138.55 37.6076 138.002 36.7782C137.492 36.097 136.983 35.3859 136.513 34.6452C135.73 35.4452 135.26 36.3634 135.26 37.5781C135.26 39.3257 136.317 40.5997 137.688 40.5997C138.55 40.5997 139.294 40.1553 139.96 39.4443V39.4442ZM137.884 30.0536C139.059 29.2537 139.921 28.3651 139.921 27.1505C139.921 25.9063 139.333 25.2843 138.667 25.2843C137.727 25.2843 137.296 26.0841 137.296 27.7429C137.296 28.4244 137.531 29.2242 137.884 30.0536H137.884Z" fill="black"/>
        <path d="M25.6806 24.5939C31.3439 23.3384 35.2497 19.4977 35.2497 13.2938C35.2497 6.49915 30.4652 0.738419 19.6267 0.738419H0.000196457V9.01661C2.02685 8.41044 4.38096 7.96014 7.10376 7.79678C7.10376 7.79678 8.19444 3.78089 13.4071 5.01013C13.4071 5.01013 15.1605 5.30411 15.7973 7.1222C15.7973 7.1222 24.2707 6.87004 26.3529 10.6391L31.818 10.5133C31.818 10.5133 32.4598 11.3653 32.5489 12.52C32.5627 12.6895 32.5643 12.865 32.5492 13.0457C32.4403 14.4202 31.4251 16.0728 27.8442 17.2392C27.5746 17.3275 27.289 17.4133 26.989 17.4954C25.8647 17.8034 24.6939 18.1499 23.532 18.5424L23.5323 18.5427C23.5323 18.5427 23.53 18.5433 23.5289 18.5434C23.0593 18.7021 22.5912 18.8681 22.1284 19.0424C19.7642 20.1208 15.7859 23.1922 21.567 30.5479C22.0028 30.925 22.3646 31.3625 22.6536 31.8508C22.6536 31.8508 22.6559 31.8549 22.6605 31.8629C23.1906 32.7637 23.4755 33.8339 23.5242 35.0084C23.7997 38.6202 22.0696 44.7172 9.89628 49.9999H20.31C31.5391 49.9999 36.1284 44.239 36.1284 36.7058C36.1284 30.6496 31.8322 25.3321 25.6806 24.5937V24.5939Z" fill="black"/>
        <path d="M185.575 0.738565L175.908 10.4315L166.534 0.738565H150.911V50H163.214L163.511 32.2186L173.858 50H177.958L184.483 32.4831C183.196 32.5982 179.857 33.0489 176.726 34.7489C172.74 36.9125 174.906 46.322 174.906 46.322C172.085 44.6178 172.49 38.3927 172.494 38.2904C172.498 38.1879 172.599 35.2182 171.181 34.5708C169.762 33.9236 169.831 35.6674 169.831 35.6674C168.939 33.5973 165.64 31.216 164.105 30.4465C163.779 30.2836 163.598 30.4116 163.511 30.7113L163.53 30.7458L162.777 33.6049C161.608 31.2077 161.927 27.886 161.927 27.886C160.036 24.6657 161.208 19.7392 161.632 18.7241C162.055 17.709 157.329 17.4985 157.329 17.4985C159.695 15.7761 162.884 17.0105 162.884 17.0105L164.928 14.6319C169.368 11.5565 168.451 5.17011 168.451 5.17011C170.658 5.70657 173.884 11.4889 173.884 11.4889C175.614 11.7561 178.176 13.5992 178.365 13.7775C180.221 15.5281 190.224 11.0417 196.157 11.0759C186.671 13.2389 180.709 16.6781 180.709 16.6781C182.716 16.4051 185.063 17.4836 185.063 17.4836C183.626 17.4278 180.072 18.9751 180.072 18.9751C180.072 18.9751 176.796 20.8131 175.096 21.0989C173.396 21.3845 173.928 22.4387 173.928 22.4387C174.995 26.2377 172.851 27.3161 172.851 27.3161C173.642 26.3946 172.551 23.8078 171.733 22.935C170.915 22.0623 171.294 21.7293 171.294 21.7293C164.434 23.0756 171.591 30.413 171.591 30.413C172.861 29.9809 173.565 30.6631 173.565 30.6631L172.769 31.4136L174.357 33.0554C179.835 30.8899 183.369 31.7928 184.572 32.2451L188.797 20.9013V50.0004H200.905V0.739006H185.575L185.575 0.738565Z" fill="black"/>
    </g>
    <defs>
        <clipPath id="clip0_1_4">
            <rect width="329.697" height="50" fill="white"/>
        </clipPath>
    </defs>
</svg>
